<?xml version="1.0" encoding="UTF-8" standalone="no"?>
<!-- Generator: Adobe Illustrator 16.0.0, SVG Export Plug-In . SVG Version: 6.00 Build 0)  -->

<svg
   xmlns:dc="http://purl.org/dc/elements/1.1/"
   xmlns:cc="http://creativecommons.org/ns#"
   xmlns:rdf="http://www.w3.org/1999/02/22-rdf-syntax-ns#"
   xmlns:svg="http://www.w3.org/2000/svg"
   xmlns="http://www.w3.org/2000/svg"
   xmlns:sodipodi="http://sodipodi.sourceforge.net/DTD/sodipodi-0.dtd"
   xmlns:inkscape="http://www.inkscape.org/namespaces/inkscape"
   version="1.1"
   id="Capa_1"
   x="0px"
   y="0px"
   width="729.837px"
   height="729.838px"
   viewBox="0 0 729.837 729.838"
   style="enable-background:new 0 0 729.837 729.838;"
   xml:space="preserve"
   sodipodi:docname="corbeille_ferme.svg"
   inkscape:version="0.92.3 (2405546, 2018-03-11)"><metadata
   id="metadata3821"><rdf:RDF><cc:Work
       rdf:about=""><dc:format>image/svg+xml</dc:format><dc:type
         rdf:resource="http://purl.org/dc/dcmitype/StillImage" /><dc:title></dc:title></cc:Work></rdf:RDF></metadata><defs
   id="defs3819" /><sodipodi:namedview
   pagecolor="#ffffff"
   bordercolor="#000000"
   borderopacity="0.25"
   objecttolerance="10"
   gridtolerance="10"
   guidetolerance="10"
   inkscape:pageopacity="0"
   inkscape:pageshadow="2"
   inkscape:window-width="1920"
   inkscape:window-height="1017"
   id="namedview3817"
   showgrid="false"
   inkscape:zoom="0.82352625"
   inkscape:cx="331.13082"
   inkscape:cy="363.49638"
   inkscape:window-x="-8"
   inkscape:window-y="-8"
   inkscape:window-maximized="1"
   inkscape:current-layer="Capa_1" />
<g
   id="g3784"
   transform="matrix(0.65277588,0,0,0.75542424,137.02997,91.071773)">
	<g
   id="g3782">
		<g
   id="g3780">
			<path
   d="m 589.193,222.04 c 0,-6.296 5.106,-11.404 11.402,-11.404 6.296,0 11.405,5.131 11.405,11.404 v 437.476 c 0,19.314 -7.936,36.896 -20.67,49.653 -12.733,12.734 -30.339,20.669 -49.653,20.669 H 188.162 c -19.315,0 -36.943,-7.935 -49.654,-20.669 -12.734,-12.734 -20.669,-30.313 -20.669,-49.653 V 222.04 c 0,-6.296 5.108,-11.404 11.403,-11.404 6.296,0 11.404,5.131 11.404,11.404 v 437.476 c 0,13.02 5.37,24.922 13.97,33.521 8.6,8.601 20.503,13.993 33.522,13.993 h 353.517 c 13.019,0 24.896,-5.394 33.498,-13.993 8.624,-8.624 13.992,-20.503 13.992,-33.498 V 222.04 Z"
   id="path3768"
   inkscape:connector-curvature="0" />
			<path
   d="m 279.866,630.056 c 0,6.296 -5.108,11.403 -11.404,11.403 -6.296,0 -11.404,-5.107 -11.404,-11.403 v -405.07 c 0,-6.296 5.108,-11.404 11.404,-11.404 6.296,0 11.404,5.108 11.404,11.404 z"
   id="path3770"
   inkscape:connector-curvature="0" />
			<path
   d="m 376.323,630.056 c 0,6.296 -5.107,11.403 -11.403,11.403 -6.296,0 -11.404,-5.107 -11.404,-11.403 v -405.07 c 0,-6.296 5.108,-11.404 11.404,-11.404 6.296,0 11.403,5.108 11.403,11.404 z"
   id="path3772"
   inkscape:connector-curvature="0" />
			<path
   d="m 472.803,630.056 c 0,6.296 -5.106,11.403 -11.402,11.403 -6.297,0 -11.404,-5.107 -11.404,-11.403 v -405.07 c 0,-6.296 5.107,-11.404 11.404,-11.404 6.296,0 11.402,5.108 11.402,11.404 z"
   id="path3774"
   inkscape:connector-curvature="0" />
			<path
   d="m 273.214,70.323 c 0,6.296 -5.108,11.404 -11.404,11.404 -6.295,0 -11.403,-5.108 -11.403,-11.404 0,-19.363 7.911,-36.943 20.646,-49.677 C 283.787,7.911 301.368,0 320.73,0 h 88.379 c 19.339,0 36.92,7.935 49.652,20.669 12.734,12.734 20.67,30.362 20.67,49.654 0,6.296 -5.107,11.404 -11.403,11.404 -6.296,0 -11.403,-5.108 -11.403,-11.404 0,-13.019 -5.369,-24.922 -13.97,-33.522 C 434.053,28.2 422.152,22.807 409.133,22.807 h -88.378 c -13.043,0 -24.922,5.369 -33.546,13.97 -8.626,8.624 -13.995,20.503 -13.995,33.546 z"
   id="path3776"
   inkscape:connector-curvature="0" />
			<path
   d="m 99.782,103.108 h 530.273 c 11.189,0 21.405,4.585 28.818,11.998 l 0.047,0.048 c 7.413,7.412 11.998,17.628 11.998,28.818 v 29.46 c 0,6.295 -5.108,11.403 -11.404,11.403 H 659.205 70.323 c -6.296,0 -11.404,-5.108 -11.404,-11.403 v -0.285 -29.175 c 0,-11.166 4.585,-21.406 11.998,-28.818 l 0.048,-0.048 c 7.412,-7.412 17.651,-11.998 28.817,-11.998 z m 530.274,22.808 H 99.782 c -4.965,0 -9.503,2.02 -12.734,5.274 L 87,131.238 c -3.255,3.23 -5.274,7.745 -5.274,12.734 v 18.056 h 566.361 v -18.056 c 0,-4.965 -2.02,-9.503 -5.273,-12.734 l -0.049,-0.048 c -3.229,-3.254 -7.744,-5.274 -12.709,-5.274 z"
   id="path3778"
   inkscape:connector-curvature="0" />
		</g>
	</g>
</g>
<g
   id="g3786">
</g>
<g
   id="g3788">
</g>
<g
   id="g3790">
</g>
<g
   id="g3792">
</g>
<g
   id="g3794">
</g>
<g
   id="g3796">
</g>
<g
   id="g3798">
</g>
<g
   id="g3800">
</g>
<g
   id="g3802">
</g>
<g
   id="g3804">
</g>
<g
   id="g3806">
</g>
<g
   id="g3808">
</g>
<g
   id="g3810">
</g>
<g
   id="g3812">
</g>
<g
   id="g3814">
</g>
</svg>